<svg width="72" height="64" viewBox="0 0 72 64" fill="none" xmlns="http://www.w3.org/2000/svg">
<path d="M68.1252 14.7125C68.5877 13.15 68.1252 12 65.9002 12H58.5377C56.6627 12 55.8002 12.9875 55.3377 14.0875C55.3377 14.0875 51.5877 23.225 46.2877 29.15C44.5752 30.8625 43.7877 31.4125 42.8502 31.4125C42.3877 31.4125 41.6752 30.8625 41.6752 29.3V14.7125C41.6752 12.8375 41.1502 12 39.6002 12H28.0252C26.8502 12 26.1502 12.875 26.1502 13.6875C26.1502 15.4625 28.8002 15.875 29.0752 20.875V31.725C29.0752 34.1 28.6502 34.5375 27.7127 34.5375C25.2127 34.5375 19.1377 25.3625 15.5377 14.8625C14.8127 12.825 14.1002 12 12.2127 12H4.8502C2.7502 12 2.3252 12.9875 2.3252 14.0875C2.3252 16.0375 4.8252 25.725 13.9627 38.525C20.0502 47.2625 28.6252 52 36.4252 52C41.1127 52 41.6877 50.95 41.6877 49.1375C41.6877 40.7875 41.2627 40 43.6127 40C44.7002 40 46.5752 40.55 50.9502 44.7625C55.9502 49.7625 56.7752 52 59.5752 52H66.9377C69.0377 52 70.1002 50.95 69.4877 48.875C68.0877 44.5125 58.6252 35.5375 58.2002 34.9375C57.1127 33.5375 57.4252 32.9125 58.2002 31.6625C58.2127 31.65 67.2002 19 68.1252 14.7125Z" fill="white"/>
</svg>
