<svg width="64" height="64" viewBox="0 0 64 64" fill="none" xmlns="http://www.w3.org/2000/svg">
<path d="M32 6.5C26.9566 6.5 22.0264 7.99555 17.833 10.7975C13.6395 13.5995 10.3711 17.5821 8.44108 22.2416C6.51105 26.9011 6.00606 32.0283 6.98999 36.9748C7.97391 41.9213 10.4025 46.465 13.9688 50.0312C17.535 53.5975 22.0787 56.0261 27.0252 57.01C31.9717 57.9939 37.0989 57.489 41.7584 55.5589C46.418 53.6289 50.4005 50.3605 53.2025 46.167C56.0045 41.9736 57.5 37.0434 57.5 32C57.4934 25.239 54.8047 18.7568 50.0239 13.9761C45.2432 9.19534 38.761 6.50662 32 6.5V6.5ZM32 54.5C27.5499 54.5 23.1998 53.1804 19.4997 50.7081C15.7996 48.2357 12.9157 44.7217 11.2127 40.6104C9.50975 36.499 9.06418 31.975 9.93234 27.6105C10.8005 23.2459 12.9434 19.2368 16.0901 16.0901C19.2368 12.9434 23.2459 10.8005 27.6105 9.93233C31.9751 9.06416 36.4991 9.50974 40.6104 11.2127C44.7217 12.9157 48.2357 15.7996 50.7081 19.4997C53.1804 23.1998 54.5 27.5499 54.5 32C54.4934 37.9653 52.1207 43.6845 47.9026 47.9026C43.6845 52.1207 37.9654 54.4934 32 54.5ZM43.5 32C43.5 32.3978 43.342 32.7794 43.0607 33.0607C42.7794 33.342 42.3978 33.5 42 33.5H33.5V42C33.5 42.3978 33.342 42.7794 33.0607 43.0607C32.7794 43.342 32.3978 43.5 32 43.5C31.6022 43.5 31.2207 43.342 30.9394 43.0607C30.658 42.7794 30.5 42.3978 30.5 42V33.5H22C21.6022 33.5 21.2207 33.342 20.9394 33.0607C20.658 32.7794 20.5 32.3978 20.5 32C20.5 31.6022 20.658 31.2206 20.9394 30.9393C21.2207 30.658 21.6022 30.5 22 30.5H30.5V22C30.5 21.6022 30.658 21.2206 30.9394 20.9393C31.2207 20.658 31.6022 20.5 32 20.5C32.3978 20.5 32.7794 20.658 33.0607 20.9393C33.342 21.2206 33.5 21.6022 33.5 22V30.5H42C42.3978 30.5 42.7794 30.658 43.0607 30.9393C43.342 31.2206 43.5 31.6022 43.5 32Z" fill="white"/>
</svg>
