<svg width="196" height="49" viewBox="0 0 196 49" fill="none" xmlns="http://www.w3.org/2000/svg">
<path d="M37.0938 2.5V48H27.7188L9.4375 17.5V48H0.0625V2.5H9.4375L27.75 33.0312V2.5H37.0938ZM61.6562 38.5L72.375 2.5H82.8125L66.9688 48H60.0938L61.6562 38.5ZM51.7812 2.5L62.4688 38.5L64.0938 48H57.1562L41.4062 2.5H51.7812ZM113 32.9062H122.344C122.156 35.9688 121.312 38.6875 119.812 41.0625C118.333 43.4375 116.26 45.2917 113.594 46.625C110.948 47.9583 107.76 48.625 104.031 48.625C101.115 48.625 98.5 48.125 96.1875 47.125C93.875 46.1042 91.8958 44.6458 90.25 42.75C88.625 40.8542 87.3854 38.5625 86.5312 35.875C85.6771 33.1875 85.25 30.1771 85.25 26.8438V23.6875C85.25 20.3542 85.6875 17.3438 86.5625 14.6562C87.4583 11.9479 88.7292 9.64583 90.375 7.75C92.0417 5.85417 94.0312 4.39583 96.3438 3.375C98.6562 2.35417 101.24 1.84375 104.094 1.84375C107.885 1.84375 111.083 2.53125 113.688 3.90625C116.312 5.28125 118.344 7.17708 119.781 9.59375C121.24 12.0104 122.115 14.7604 122.406 17.8438H113.031C112.927 16.0104 112.562 14.4583 111.938 13.1875C111.312 11.8958 110.365 10.9271 109.094 10.2812C107.844 9.61458 106.177 9.28125 104.094 9.28125C102.531 9.28125 101.167 9.57292 100 10.1562C98.8333 10.7396 97.8542 11.625 97.0625 12.8125C96.2708 14 95.6771 15.5 95.2812 17.3125C94.9062 19.1042 94.7188 21.2083 94.7188 23.625V26.8438C94.7188 29.1979 94.8958 31.2708 95.25 33.0625C95.6042 34.8333 96.1458 36.3333 96.875 37.5625C97.625 38.7708 98.5833 39.6875 99.75 40.3125C100.938 40.9167 102.365 41.2188 104.031 41.2188C105.99 41.2188 107.604 40.9062 108.875 40.2812C110.146 39.6562 111.115 38.7292 111.781 37.5C112.469 36.2708 112.875 34.7396 113 32.9062ZM153.375 14.1875V48H144.344V14.1875H153.375ZM143.781 5.375C143.781 4.0625 144.24 2.97917 145.156 2.125C146.073 1.27083 147.302 0.84375 148.844 0.84375C150.365 0.84375 151.583 1.27083 152.5 2.125C153.438 2.97917 153.906 4.0625 153.906 5.375C153.906 6.6875 153.438 7.77083 152.5 8.625C151.583 9.47917 150.365 9.90625 148.844 9.90625C147.302 9.90625 146.073 9.47917 145.156 8.625C144.24 7.77083 143.781 6.6875 143.781 5.375ZM181.719 2.5V48H172.375V2.5H181.719ZM195.719 2.5V9.84375H158.594V2.5H195.719Z" fill="#1993E9"/>
</svg>
